<svg xmlns="http://www.w3.org/2000/svg" xmlns:xlink="http://www.w3.org/1999/xlink" viewBox="0 0 1280 620" width="1280" height="620" role="img" aria-label="Swastik - Full Stack Developer">
<title>Swastik — Full Stack Developer | CS Student</title>
<defs>
<style type="text/css"><![CDATA[
text{font-family:'SFMono-Regular',Consolas,'Liberation Mono',Menlo,monospace}
@keyframes fadeIn{from{opacity:0}to{opacity:1}}
@keyframes popIn{0%{opacity:0;transform:translateY(14px) scale(.7)}70%{opacity:1;transform:translateY(-3px) scale(1.06)}100%{opacity:1;transform:translateY(0) scale(1)}}
@keyframes blink{0%,49%{opacity:1}50%,100%{opacity:0}}
@keyframes floaty{0%,100%{transform:translateY(0)}50%{transform:translateY(-9px)}}
@keyframes spin{from{transform:rotate(0deg)}to{transform:rotate(360deg)}}
@keyframes spinRev{from{transform:rotate(360deg)}to{transform:rotate(0deg)}}
@keyframes twinkle{0%,100%{opacity:0;transform:scale(.4)}50%{opacity:1;transform:scale(1)}}
@keyframes rise{0%{transform:translateY(0);opacity:0}12%{opacity:.5}88%{opacity:.5}100%{transform:translateY(-46px);opacity:0}}
.pop{opacity:0;animation:popIn .5s cubic-bezier(.2,.8,.3,1.3) forwards}
.fade{opacity:0}
.pill{transition:transform .2s ease;transform-box:fill-box;transform-origin:center}
.cur{animation:blink 1s step-end infinite}
.tw{transform-box:fill-box;transform-origin:center;animation:twinkle 2.6s ease-in-out infinite}
.fl{transform-box:fill-box;transform-origin:center;animation:floaty 5s ease-in-out infinite}
.spin{transform-box:fill-box;transform-origin:center;animation:spin 18s linear infinite}
.spinR{transform-box:fill-box;transform-origin:center;animation:spinRev 24s linear infinite}
.rp{animation:rise linear infinite}
.sep{stroke:#1e2a44;stroke-width:1;opacity:.7}
]]></style>

<linearGradient id="bg" x1="0" y1="0" x2="1" y2="1">
  <stop offset="0%" stop-color="#0b1120"/><stop offset="55%" stop-color="#0e1526"/><stop offset="100%" stop-color="#080c17"/>
</linearGradient>
<linearGradient id="nameg" x1="0" y1="0" x2="1" y2="0">
  <stop offset="0%" stop-color="#7C3AED"><animate attributeName="stop-color" values="#7C3AED;#22D3EE;#10B981;#7C3AED" dur="7s" repeatCount="indefinite"/></stop>
  <stop offset="100%" stop-color="#22D3EE"><animate attributeName="stop-color" values="#22D3EE;#10B981;#7C3AED;#22D3EE" dur="7s" repeatCount="indefinite"/></stop>
</linearGradient>
<linearGradient id="borderg" x1="0" y1="0" x2="1" y2="1">
  <stop offset="0%" stop-color="#7C3AED" stop-opacity=".4"/><stop offset="50%" stop-color="#22D3EE" stop-opacity=".3"/><stop offset="100%" stop-color="#10B981" stop-opacity=".4"/>
</linearGradient>
<radialGradient id="orbV"><stop offset="0%" stop-color="#7C3AED" stop-opacity=".18"/><stop offset="100%" stop-color="#7C3AED" stop-opacity="0"/></radialGradient>
<radialGradient id="orbC"><stop offset="0%" stop-color="#22D3EE" stop-opacity=".16"/><stop offset="100%" stop-color="#22D3EE" stop-opacity="0"/></radialGradient>
<radialGradient id="orbE"><stop offset="0%" stop-color="#10B981" stop-opacity=".12"/><stop offset="100%" stop-color="#10B981" stop-opacity="0"/></radialGradient>
<filter id="glow"><feGaussianBlur stdDeviation="2.5" result="b"/><feMerge><feMergeNode in="b"/><feMergeNode in="SourceGraphic"/></feMerge></filter>
<filter id="glowBig"><feGaussianBlur stdDeviation="6" result="b"/><feMerge><feMergeNode in="b"/><feMergeNode in="SourceGraphic"/></feMerge></filter>
<pattern id="dots" width="30" height="30" patternUnits="userSpaceOnUse"><circle cx="15" cy="15" r=".6" fill="rgba(34,211,238,.08)"/></pattern>

<clipPath id="cPrompt"><rect x="48" y="48" width="0" height="32"><animate attributeName="width" from="0" to="470" dur="1s" begin=".3s" fill="freeze"/></rect></clipPath>
<clipPath id="r1"><rect x="48" y="176" width="0" height="34"><animate attributeName="width" values="0;0;280;280;0;0" keyTimes="0;.01;.07;.2;.24;1" dur="20s" repeatCount="indefinite" begin="2.4s"/></rect></clipPath>
<clipPath id="r2"><rect x="48" y="176" width="0" height="34"><animate attributeName="width" values="0;0;230;230;0;0" keyTimes="0;.26;.32;.45;.49;1" dur="20s" repeatCount="indefinite" begin="2.4s"/></rect></clipPath>
<clipPath id="r3"><rect x="48" y="176" width="0" height="34"><animate attributeName="width" values="0;0;260;260;0;0" keyTimes="0;.51;.57;.7;.74;1" dur="20s" repeatCount="indefinite" begin="2.4s"/></rect></clipPath>
<clipPath id="r4"><rect x="48" y="176" width="0" height="34"><animate attributeName="width" values="0;0;250;250;0;0" keyTimes="0;.76;.82;.95;.99;1" dur="20s" repeatCount="indefinite" begin="2.4s"/></rect></clipPath>
</defs>

<rect width="1280" height="620" rx="22" fill="url(#bg)"/>
<rect width="1280" height="620" rx="22" fill="url(#dots)"/>
<circle cx="220" cy="180" r="240" fill="url(#orbV)"><animate attributeName="r" values="240;265;240" dur="6s" repeatCount="indefinite"/></circle>
<circle cx="1020" cy="440" r="270" fill="url(#orbC)"><animate attributeName="r" values="270;295;270" dur="7s" repeatCount="indefinite"/></circle>
<circle cx="700" cy="120" r="180" fill="url(#orbE)"><animate attributeName="r" values="180;200;180" dur="5.5s" repeatCount="indefinite"/></circle>
<rect x="1" y="1" width="1278" height="618" rx="21" fill="none" stroke="url(#borderg)" stroke-width="1.5"/>

<circle class="rp" cx="140" cy="520" r="1.4" fill="#22D3EE" style="animation-duration:5s"/>
<circle class="rp" cx="420" cy="580" r="1.1" fill="#7C3AED" style="animation-duration:6s;animation-delay:1s"/>
<circle class="rp" cx="1180" cy="560" r="1.2" fill="#10B981" style="animation-duration:5.4s;animation-delay:.6s"/>
<g class="tw" style="animation-delay:.4s"><path d="M470 100l3 8 8 3-8 3-3 8-3-8-8-3 8-3z" fill="#22D3EE"/></g>
<g class="tw" style="animation-delay:1.8s"><path d="M900 90l2.4 6.4 6.4 2.4-6.4 2.4-2.4 6.4-2.4-6.4-6.4-2.4 6.4-2.4z" fill="#7C3AED"/></g>

<!-- ============= LEFT: TERMINAL CONTENT ============= -->
<text clip-path="url(#cPrompt)" x="48" y="69" font-size="14"><tspan fill="#4ade80" font-weight="bold">swastik@fullstack-dev</tspan><tspan fill="#8b949e">:~$ </tspan><tspan fill="#e6edf3">cat </tspan><tspan fill="#22D3EE">README.md</tspan></text>
<rect x="450" y="56" width="8" height="16" fill="#4ade80" opacity="0"><animate attributeName="opacity" values="1;0" dur="1s" repeatCount="indefinite" begin="1.35s"/></rect>

<text class="pop" x="48" y="110" font-size="24" font-weight="bold" fill="#e6edf3" style="animation-delay:1.2s">Hi, I'm 👋</text>
<text class="pop" x="48" y="158" font-size="46" font-weight="bold" fill="url(#nameg)" filter="url(#glow)" style="animation-delay:1.5s">Swastik</text>

<text clip-path="url(#r1)" x="48" y="202" font-size="17" fill="#22D3EE" filter="url(#glow)">&lt; Full Stack Developer /&gt;</text>
<text clip-path="url(#r2)" x="48" y="202" font-size="17" fill="#22D3EE" filter="url(#glow)">&lt; CS Student /&gt;</text>
<text clip-path="url(#r3)" x="48" y="202" font-size="17" fill="#22D3EE" filter="url(#glow)">&lt; AI &amp; ML Enthusiast /&gt;</text>
<text clip-path="url(#r4)" x="48" y="202" font-size="17" fill="#22D3EE" filter="url(#glow)">&lt; Building in Public /&gt;</text>
<rect x="48" y="189" width="2.5" height="16" fill="#22D3EE" opacity="0"><animate attributeName="opacity" values="1;0" dur=".8s" repeatCount="indefinite" begin="2.4s"/></rect>

<g class="fade" style="animation:fadeIn .5s ease 3s forwards">
  <rect x="48" y="224" width="480" height="56" rx="8" fill="#101a2f" stroke="#233252" stroke-width="1"/>
  <rect x="48" y="228" width="3.5" height="48" rx="1.5" fill="#22D3EE"/>
</g>
<text class="fade" x="76" y="257" font-size="13.5" fill="#cdd3dd" style="animation:fadeIn .5s ease 3.2s forwards">Currently learning &amp; building full-stack</text>
<text class="fade" x="76" y="275" font-size="13.5" fill="#cdd3dd" style="animation:fadeIn .5s ease 3.2s forwards">+ AI-powered projects.</text>

<text class="fade" x="48" y="322" font-size="15" fill="#7C3AED" font-weight="bold" style="animation:fadeIn .4s ease 3.6s forwards">🧩 Tech I Use</text>
<g font-size="12" font-weight="bold">
  <g class="pill fade" style="animation:fadeIn .3s ease 3.8s forwards"><rect x="48" y="336" width="66" height="26" rx="13" fill="rgba(34,211,238,.10)" stroke="#22D3EE" stroke-width="1"/><text x="81" y="353" text-anchor="middle" fill="#67e8f9">Python</text></g>
  <g class="pill fade" style="animation:fadeIn .3s ease 3.9s forwards"><rect x="122" y="336" width="46" height="26" rx="13" fill="rgba(124,58,237,.12)" stroke="#7C3AED" stroke-width="1"/><text x="145" y="353" text-anchor="middle" fill="#c4b5fd">C</text></g>
  <g class="pill fade" style="animation:fadeIn .3s ease 4s forwards"><rect x="176" y="336" width="56" height="26" rx="13" fill="rgba(16,185,129,.12)" stroke="#10B981" stroke-width="1"/><text x="204" y="353" text-anchor="middle" fill="#6ee7b7">C++</text></g>
  <g class="pill fade" style="animation:fadeIn .3s ease 4.1s forwards"><rect x="240" y="336" width="60" height="26" rx="13" fill="rgba(34,211,238,.10)" stroke="#22D3EE" stroke-width="1"/><text x="270" y="353" text-anchor="middle" fill="#67e8f9">React</text></g>
  <g class="pill fade" style="animation:fadeIn .3s ease 4.2s forwards"><rect x="308" y="336" width="80" height="26" rx="13" fill="rgba(124,58,237,.12)" stroke="#7C3AED" stroke-width="1"/><text x="348" y="353" text-anchor="middle" fill="#c4b5fd">Node.js</text></g>
  <g class="pill fade" style="animation:fadeIn .3s ease 4.3s forwards"><rect x="396" y="336" width="80" height="26" rx="13" fill="rgba(16,185,129,.12)" stroke="#10B981" stroke-width="1"/><text x="436" y="353" text-anchor="middle" fill="#6ee7b7">Express</text></g>

  <g class="pill fade" style="animation:fadeIn .3s ease 4.4s forwards"><rect x="48" y="370" width="88" height="26" rx="13" fill="rgba(34,211,238,.10)" stroke="#22D3EE" stroke-width="1"/><text x="92" y="387" text-anchor="middle" fill="#67e8f9">MongoDB</text></g>
  <g class="pill fade" style="animation:fadeIn .3s ease 4.5s forwards"><rect x="144" y="370" width="66" height="26" rx="13" fill="rgba(124,58,237,.12)" stroke="#7C3AED" stroke-width="1"/><text x="177" y="387" text-anchor="middle" fill="#c4b5fd">MySQL</text></g>
  <g class="pill fade" style="animation:fadeIn .3s ease 4.6s forwards"><rect x="218" y="370" width="98" height="26" rx="13" fill="rgba(16,185,129,.12)" stroke="#10B981" stroke-width="1"/><text x="267" y="387" text-anchor="middle" fill="#6ee7b7">PostgreSQL</text></g>
  <g class="pill fade" style="animation:fadeIn .3s ease 4.7s forwards"><rect x="324" y="370" width="52" height="26" rx="13" fill="rgba(34,211,238,.10)" stroke="#22D3EE" stroke-width="1"/><text x="350" y="387" text-anchor="middle" fill="#67e8f9">AWS</text></g>
  <g class="pill fade" style="animation:fadeIn .3s ease 4.8s forwards"><rect x="384" y="370" width="46" height="26" rx="13" fill="rgba(124,58,237,.12)" stroke="#7C3AED" stroke-width="1"/><text x="407" y="387" text-anchor="middle" fill="#c4b5fd">Git</text></g>

  <g class="pill fade" style="animation:fadeIn .3s ease 4.9s forwards"><rect x="48" y="404" width="112" height="26" rx="13" fill="rgba(16,185,129,.12)" stroke="#10B981" stroke-width="1"/><text x="104" y="421" text-anchor="middle" fill="#6ee7b7">scikit-learn</text></g>
  <g class="pill fade" style="animation:fadeIn .3s ease 5s forwards"><rect x="168" y="404" width="106" height="26" rx="13" fill="rgba(34,211,238,.10)" stroke="#22D3EE" stroke-width="1"/><text x="221" y="421" text-anchor="middle" fill="#67e8f9">OpenAI API</text></g>
  <g class="pill fade" style="animation:fadeIn .3s ease 5.1s forwards"><rect x="282" y="404" width="132" height="26" rx="13" fill="rgba(124,58,237,.12)" stroke="#7C3AED" stroke-width="1"/><text x="348" y="421" text-anchor="middle" fill="#c4b5fd">Gemini API</text></g>
  <g class="pill fade" style="animation:fadeIn .3s ease 5.2s forwards"><rect x="422" y="404" width="60" height="26" rx="13" fill="rgba(16,185,129,.12)" stroke="#10B981" stroke-width="1"/><text x="452" y="421" text-anchor="middle" fill="#6ee7b7">CI/CD</text></g>
</g>

<line x1="48" y1="450" x2="528" y2="450" class="sep" stroke-dasharray="480" stroke-dashoffset="480">
  <animate attributeName="stroke-dashoffset" from="480" to="0" dur=".7s" begin="5.6s" fill="freeze"/>
</line>
<g class="fade" style="animation:fadeIn .5s ease 5.8s forwards">
  <g transform="translate(48,464) scale(.75)"><path d="M12 0c-6.626 0-12 5.373-12 12 0 5.302 3.438 9.8 8.207 11.387.599.111.793-.261.793-.577v-2.234c-3.338.726-4.033-1.416-4.033-1.416-.546-1.387-1.333-1.756-1.333-1.756-1.089-.745.083-.729.083-.729 1.205.084 1.839 1.237 1.839 1.237 1.07 1.834 2.807 1.304 3.492.997.107-.775.418-1.305.762-1.604-2.665-.305-5.467-1.334-5.467-5.931 0-1.311.469-2.381 1.236-3.221-.124-.303-.535-1.524.117-3.176 0 0 1.008-.322 3.301 1.23a11.4 11.4 0 0 1 6.006 0c2.291-1.552 3.297-1.23 3.297-1.23.653 1.653.242 2.874.118 3.176.77.84 1.235 1.911 1.235 3.221 0 4.609-2.807 5.624-5.479 5.921.43.372.823 1.102.823 2.222v3.293c0 .319.192.694.801.576C20.565 21.797 24 17.3 24 12c0-6.627-5.373-12-12-12z" fill="#c9d1d9"/></g>
  <text x="76" y="479" font-size="12.5" fill="#c9d1d9">SWASTIK1804</text>
  <text x="48" y="500" font-size="11.5"><tspan fill="#28c840">●</tspan><tspan fill="#8b949e"> open to collaborate</tspan></text>
</g>

<!-- ============= RIGHT: ABSTRACT CODE ORB (no borrowed artwork) ============= -->
<g transform="translate(950,300)">
  <circle r="230" fill="none" stroke="#1e2a44" stroke-width="1"/>
  <g class="spin"><circle r="180" fill="none" stroke="#22D3EE" stroke-width="1" stroke-dasharray="4 10" opacity=".5"/></g>
  <g class="spinR"><circle r="130" fill="none" stroke="#7C3AED" stroke-width="1" stroke-dasharray="2 8" opacity=".5"/></g>
  <g class="fl">
    <circle r="86" fill="#0e1526" stroke="url(#nameg)" stroke-width="1.5" filter="url(#glowBig)"/>
    <text text-anchor="middle" y="14" font-size="42" font-weight="bold" fill="url(#nameg)" filter="url(#glow)">&lt;/&gt;</text>
  </g>
  <g class="spin" style="animation-duration:14s">
    <circle cx="180" cy="0" r="5" fill="#22D3EE" filter="url(#glow)"/>
  </g>
  <g class="spinR" style="animation-duration:20s">
    <circle cx="-130" cy="0" r="4" fill="#7C3AED" filter="url(#glow)"/>
  </g>
  <g class="spin" style="animation-duration:26s">
    <circle cx="0" cy="-230" r="4" fill="#10B981" filter="url(#glow)"/>
  </g>
</g>

<text x="1232" y="600" text-anchor="end" font-size="12.5"><tspan fill="#8b949e">"</tspan><tspan fill="#a5b4fc">Always learning, always building.</tspan><tspan fill="#8b949e">"</tspan></text>
</svg>
